PathFileType	4	(x/y/z)	S01_SL_Cal.trc
DataRate	CameraRate	NumFrames	NumMarkers	Units	OrigDataRate	OrigDataStartFrame	OrigNumFrames
240	240	9	51	mm	240	1501	2400
Frame#	Time	Sternum			R.Acromium			L.Acromium			Top.Head			R.ASIS			L.ASIS			R.PSIS			L.PSIS			R.Great.Tro			L.Great.Tro			R.Iliac.Crest			L.Iliac.Crest			V.Sacral			R.Thigh.Upper.Post			R.Thigh.Lower.Ant			R.Thigh.Lower.Post			R.Thigh.Upper.Ant			R.Knee.Lat			R.Knee.Med			R.Shank.Upper.Post			R.Shank.Lower.Ant			R.Shank.Lower.Post			R.Shank.Upper.Ant			R.Ankle.Lat			R.Ankle.Med			R.Heel.Upper			R.Heel.Med			R.Heel.Lat			R.Toe.Lat			R.Toe.Med			R.Toe.Tip			L.Thigh.Upper.Post			L.Thigh.Lower.Ant			L.Thigh.Lower.Post			L.Thigh.Upper.Ant			L.Knee.Lat			L.Knee.Med			L.Shank.Upper.Post			L.Shank.Lower.Ant			L.Shank.Lower.Post			L.Shank.Upper.Ant			L.Ankle.Lat			L.Ankle.Med			L.Heel.Upper			L.Heel.Med			L.Heel.Lat			L.Toe.Lat			L.Toe.Med			L.Toe.Tip			Cervical.Spine			Back			
		X1	Y1	Z1	X2	Y2	Z2	X3	Y3	Z3	X4	Y4	Z4	X5	Y5	Z5	X6	Y6	Z6	X7	Y7	Z7	X8	Y8	Z8	X9	Y9	Z9	X10	Y10	Z10	X11	Y11	Z11	X12	Y12	Z12	X13	Y13	Z13	X14	Y14	Z14	X15	Y15	Z15	X16	Y16	Z16	X17	Y17	Z17	X18	Y18	Z18	X19	Y19	Z19	X20	Y20	Z20	X21	Y21	Z21	X22	Y22	Z22	X23	Y23	Z23	X24	Y24	Z24	X25	Y25	Z25	X26	Y26	Z26	X27	Y27	Z27	X28	Y28	Z28	X29	Y29	Z29	X30	Y30	Z30	X31	Y31	Z31	X32	Y32	Z32	X33	Y33	Z33	X34	Y34	Z34	X35	Y35	Z35	X36	Y36	Z36	X37	Y37	Z37	X38	Y38	Z38	X39	Y39	Z39	X40	Y40	Z40	X41	Y41	Z41	X42	Y42	Z42	X43	Y43	Z43	X44	Y44	Z44	X45	Y45	Z45	X46	Y46	Z46	X47	Y47	Z47	X48	Y48	Z48	X49	Y49	Z49	X50	Y50	Z50	X51	Y51	Z51	

1501	6.25	727.51	1310.9	260.27	584.69	1553.3	440.66	543.58	1563	115.89	523.16	1868.6	279.7	708.87	1045.1	419.21	701.23	1045.6	148.04	468.05	1080.1	332.72	462.28	1078.4	229.41	628.46	991.3	501.44	587.39	995.06	73.281	615.05	1141.6	484.69	582.81	1124.4	79.663	452.93	1042.6	279.64	585.19	694.19	496.77	644.82	614.33	471.8	576.63	606.08	481.19	656.97	703.58	486.65	590.98	536.75	477.22	595.16	526.75	335.19	509.7	390.19	513.44	560.12	296.8	480.85	496.34	320.04	507.95	569.62	369.36	491.97	475.97	111.73	490.06	509.12	109.64	398.37	408.52	78.156	435.8	420.18	47.08	407.2	416.58	48.819	471.84	605.11	34.274	529.02	636.49	39.952	405.78	699.96	54.671	460.98	521.39	725.99	84.529	595.17	644.67	72.423	520.03	635.1	95.458	587.67	739.4	60.149	554.1	541.26	79.384	588.49	528.88	216.21	482.62	411.14	55.938	539.25	316.02	66.31	478.24	333.32	52.895	544.33	392.95	64.458	458.93	112.74	75.385	491.41	118.29	168.65	391.06	79.149	120.49	401.81	51.662	152.75	398.89	53.428	90.873	602.62	37.513	41.684	628.44	46.961	163.36	690.05	58.066	112.46	481.76	1597.5	286.86	426.16	1277.3	305
1502	6.2542	727.52	1310.9	260.27	584.72	1553.3	440.67	543.6	1563	115.9	523.21	1868.6	279.72	708.88	1045.1	419.21	701.24	1045.6	148.04	468.06	1080.1	332.72	462.29	1078.4	229.4	628.47	991.3	501.43	587.4	995.06	73.28	615.07	1141.6	484.69	582.82	1124.4	79.66	452.95	1042.6	279.63	585.19	694.19	496.77	644.82	614.33	471.8	576.63	606.08	481.18	656.97	703.58	486.65	590.98	536.75	477.22	595.16	526.75	335.19	509.7	390.19	513.44	560.12	296.8	480.85	496.34	320.04	507.95	569.62	369.36	491.97	475.97	111.73	490.06	509.12	109.64	398.37	408.52	78.157	435.8	420.18	47.081	407.2	416.58	48.821	471.83	605.11	34.275	529.02	636.49	39.952	405.78	699.96	54.671	460.97	521.4	725.99	84.525	595.19	644.67	72.421	520.05	635.1	95.454	587.68	739.4	60.146	554.11	541.26	79.379	588.5	528.88	216.21	482.63	411.14	55.935	539.25	316.02	66.308	478.24	333.32	52.892	544.34	392.96	64.456	458.93	112.74	75.385	491.42	118.29	168.65	391.06	79.151	120.49	401.81	51.664	152.75	398.89	53.43	90.873	602.62	37.513	41.684	628.44	46.961	163.36	690.05	58.064	112.46	481.79	1597.5	286.87	426.18	1277.3	304.99
1503	6.2583	727.54	1310.9	260.26	584.75	1553.3	440.68	543.61	1563.1	115.92	523.26	1868.6	279.74	708.89	1045.1	419.21	701.26	1045.6	148.04	468.07	1080.1	332.71	462.31	1078.4	229.4	628.48	991.31	501.43	587.42	995.05	73.279	615.08	1141.6	484.69	582.83	1124.4	79.658	452.96	1042.6	279.63	585.2	694.19	496.77	644.82	614.33	471.8	576.63	606.08	481.18	656.98	703.58	486.65	590.98	536.75	477.21	595.16	526.75	335.19	509.7	390.2	513.45	560.12	296.8	480.85	496.34	320.04	507.94	569.62	369.36	491.97	475.97	111.73	490.06	509.12	109.64	398.37	408.53	78.157	435.8	420.18	47.082	407.2	416.58	48.823	471.83	605.11	34.276	529.02	636.49	39.951	405.78	699.96	54.671	460.97	521.41	725.99	84.521	595.2	644.67	72.419	520.06	635.11	95.449	587.69	739.4	60.143	554.12	541.26	79.375	588.51	528.88	216.21	482.64	411.14	55.931	539.26	316.02	66.306	478.25	333.32	52.888	544.35	392.96	64.454	458.93	112.74	75.386	491.42	118.29	168.65	391.06	79.152	120.49	401.81	51.665	152.75	398.9	53.432	90.873	602.62	37.512	41.684	628.44	46.961	163.35	690.05	58.063	112.45	481.82	1597.5	286.88	426.19	1277.3	304.99
1504	6.2625	727.55	1310.9	260.26	584.78	1553.3	440.69	543.62	1563.1	115.93	523.3	1868.6	279.76	708.89	1045.1	419.21	701.27	1045.6	148.03	468.08	1080.1	332.71	462.32	1078.4	229.39	628.49	991.31	501.43	587.43	995.05	73.278	615.1	1141.6	484.69	582.85	1124.4	79.656	452.97	1042.6	279.62	585.2	694.19	496.77	644.82	614.33	471.8	576.64	606.08	481.18	656.98	703.58	486.65	590.98	536.75	477.21	595.17	526.75	335.18	509.7	390.2	513.45	560.12	296.81	480.85	496.34	320.05	507.94	569.62	369.36	491.97	475.97	111.74	490.05	509.12	109.64	398.37	408.53	78.158	435.79	420.18	47.082	407.2	416.58	48.824	471.83	605.11	34.277	529.02	636.49	39.951	405.78	699.96	54.671	460.97	521.42	725.99	84.517	595.21	644.67	72.417	520.07	635.11	95.444	587.7	739.4	60.141	554.13	541.26	79.371	588.52	528.89	216.2	482.65	411.14	55.928	539.27	316.02	66.304	478.26	333.32	52.885	544.36	392.96	64.452	458.93	112.74	75.386	491.42	118.29	168.65	391.06	79.154	120.49	401.81	51.667	152.75	398.9	53.434	90.873	602.62	37.512	41.683	628.44	46.96	163.35	690.05	58.061	112.45	481.85	1597.6	286.9	426.2	1277.3	304.99
1505	6.2667	727.56	1310.9	260.26	584.8	1553.3	440.7	543.63	1563.1	115.94	523.35	1868.6	279.78	708.9	1045.1	419.21	701.29	1045.6	148.03	468.09	1080.1	332.7	462.33	1078.4	229.39	628.49	991.31	501.42	587.45	995.05	73.278	615.11	1141.6	484.69	582.86	1124.4	79.654	452.98	1042.6	279.62	585.2	694.19	496.76	644.82	614.33	471.8	576.64	606.08	481.18	656.98	703.58	486.65	590.98	536.75	477.21	595.17	526.75	335.18	509.7	390.21	513.45	560.12	296.81	480.85	496.34	320.05	507.94	569.62	369.36	491.96	475.97	111.74	490.05	509.12	109.64	398.36	408.53	78.158	435.79	420.18	47.082	407.2	416.58	48.825	471.83	605.1	34.279	529.02	636.49	39.951	405.78	699.96	54.671	460.97	521.44	725.99	84.514	595.22	644.67	72.415	520.08	635.11	95.44	587.72	739.4	60.139	554.14	541.26	79.368	588.53	528.89	216.2	482.66	411.15	55.924	539.27	316.02	66.302	478.27	333.32	52.881	544.37	392.96	64.45	458.93	112.74	75.386	491.42	118.29	168.65	391.06	79.155	120.49	401.81	51.669	152.75	398.9	53.436	90.874	602.62	37.512	41.683	628.44	46.96	163.35	690.05	58.06	112.45	481.88	1597.6	286.91	426.22	1277.3	304.99
1506	6.2708	727.57	1310.9	260.25	584.83	1553.3	440.71	543.64	1563.1	115.96	523.41	1868.6	279.81	708.91	1045.1	419.21	701.31	1045.6	148.03	468.1	1080.1	332.7	462.34	1078.4	229.38	628.5	991.31	501.42	587.46	995.04	73.278	615.13	1141.6	484.69	582.87	1124.4	79.653	452.99	1042.6	279.61	585.21	694.19	496.76	644.83	614.33	471.8	576.64	606.08	481.18	656.99	703.58	486.66	590.98	536.75	477.21	595.18	526.75	335.18	509.7	390.21	513.45	560.12	296.81	480.85	496.34	320.05	507.93	569.61	369.36	491.96	475.97	111.74	490.05	509.12	109.64	398.36	408.53	78.159	435.79	420.18	47.082	407.2	416.58	48.827	471.83	605.1	34.28	529.02	636.49	39.952	405.78	699.96	54.672	460.97	521.45	725.99	84.51	595.23	644.67	72.414	520.09	635.11	95.435	587.73	739.4	60.137	554.15	541.26	79.364	588.54	528.89	216.2	482.67	411.15	55.92	539.28	316.02	66.3	478.27	333.33	52.877	544.37	392.96	64.448	458.93	112.75	75.386	491.43	118.29	168.65	391.06	79.157	120.49	401.81	51.671	152.75	398.9	53.437	90.874	602.62	37.512	41.682	628.44	46.96	163.35	690.05	58.058	112.45	481.91	1597.6	286.93	426.23	1277.3	304.98
1507	6.275	727.58	1310.9	260.24	584.86	1553.3	440.72	543.65	1563.1	115.97	523.46	1868.6	279.83	708.92	1045.1	419.21	701.32	1045.6	148.03	468.11	1080.1	332.7	462.36	1078.4	229.38	628.51	991.31	501.42	587.48	995.04	73.278	615.14	1141.6	484.69	582.88	1124.4	79.653	453	1042.6	279.61	585.21	694.19	496.76	644.83	614.33	471.8	576.65	606.08	481.18	656.99	703.58	486.66	590.98	536.75	477.21	595.18	526.75	335.18	509.7	390.21	513.46	560.12	296.82	480.85	496.34	320.06	507.93	569.61	369.37	491.96	475.97	111.74	490.05	509.13	109.64	398.36	408.53	78.159	435.79	420.18	47.082	407.2	416.58	48.828	471.83	605.1	34.282	529.02	636.49	39.952	405.78	699.96	54.673	460.97	521.46	726	84.507	595.25	644.67	72.412	520.11	635.11	95.431	587.74	739.4	60.136	554.16	541.26	79.361	588.55	528.89	216.2	482.68	411.15	55.917	539.29	316.02	66.298	478.28	333.33	52.873	544.38	392.96	64.446	458.94	112.75	75.386	491.43	118.29	168.64	391.06	79.159	120.49	401.81	51.673	152.75	398.9	53.439	90.874	602.62	37.511	41.682	628.44	46.96	163.35	690.05	58.056	112.45	481.94	1597.6	286.94	426.24	1277.3	304.98
1508	6.2792	727.59	1310.9	260.24	584.89	1553.2	440.73	543.66	1563.1	115.98	523.51	1868.6	279.86	708.93	1045.1	419.21	701.34	1045.6	148.03	468.12	1080.1	332.69	462.37	1078.4	229.38	628.52	991.31	501.42	587.49	995.04	73.279	615.16	1141.6	484.69	582.9	1124.4	79.653	453.01	1042.6	279.6	585.21	694.19	496.76	644.83	614.33	471.8	576.65	606.08	481.18	656.99	703.58	486.66	590.98	536.75	477.21	595.18	526.75	335.18	509.7	390.22	513.46	560.12	296.82	480.85	496.34	320.06	507.92	569.61	369.37	491.96	475.97	111.74	490.04	509.13	109.63	398.36	408.53	78.16	435.79	420.18	47.082	407.2	416.58	48.829	471.82	605.1	34.283	529.03	636.49	39.952	405.78	699.96	54.674	460.97	521.47	726	84.504	595.26	644.67	72.411	520.12	635.11	95.427	587.76	739.4	60.135	554.18	541.26	79.358	588.55	528.89	216.2	482.69	411.15	55.913	539.29	316.02	66.297	478.29	333.33	52.869	544.39	392.96	64.444	458.94	112.75	75.386	491.43	118.29	168.64	391.07	79.161	120.49	401.81	51.675	152.75	398.9	53.441	90.874	602.62	37.511	41.682	628.44	46.96	163.35	690.05	58.054	112.45	481.97	1597.6	286.96	426.25	1277.3	304.98
1509	6.2833	727.6	1310.9	260.23	584.92	1553.2	440.74	543.67	1563.1	116	523.57	1868.6	279.89	708.94	1045.1	419.21	701.35	1045.6	148.03	468.13	1080.1	332.69	462.38	1078.4	229.37	628.52	991.31	501.42	587.51	995.03	73.28	615.17	1141.6	484.69	582.91	1124.4	79.653	453.03	1042.6	279.6	585.21	694.19	496.76	644.83	614.33	471.8	576.65	606.09	481.18	657	703.58	486.66	590.98	536.75	477.21	595.19	526.76	335.18	509.69	390.22	513.46	560.11	296.82	480.85	496.34	320.06	507.92	569.61	369.37	491.96	475.97	111.74	490.04	509.13	109.63	398.36	408.53	78.16	435.79	420.18	47.082	407.19	416.58	48.829	471.82	605.09	34.284	529.03	636.49	39.952	405.78	699.96	54.674	460.97	521.48	726	84.501	595.27	644.67	72.41	520.13	635.11	95.423	587.77	739.4	60.134	554.19	541.26	79.355	588.56	528.89	216.2	482.7	411.15	55.91	539.3	316.02	66.295	478.3	333.33	52.865	544.4	392.96	64.443	458.94	112.75	75.386	491.43	118.29	168.64	391.07	79.163	120.49	401.82	51.676	152.75	398.9	53.443	90.874	602.62	37.51	41.681	628.44	46.96	163.36	690.05	58.052	112.45	482	1597.6	286.97	426.26	1277.3	304.98
